# xmcd CD database file
#
# Track frame offsets:
#	150
#	23138
#	46050
#	66753
#	89228
#	107988
#	126293
#	143833
#	162193
#
# Disc length: 2399 seconds
#
# Revision: 0
# Processed by: cddbd v1.4PL0 Copyright (c) Steve Scherf et al.
# Submitted via: Feurio! 1.65 - http://www.feurio.com
#
DISCID=7c095d09
DTITLE=Denise LaSalle - Hittin' Where It Hurts
DYEAR=1900
DGENRE=blues
TTITLE0=Don't Cry No More
TTITLE1=Write This One Off (As A Loss)
TTITLE2=Caught In Your Own Mess
TTITLE3=Bring I On Home To Me
TTITLE4=Eee Tee
TTITLE5=If You Can't Do Me Right
TTITLE6=See Saw
TTITLE7=You Gotta Pay To Play
TTITLE8=I Forgot To Remember
EXTD=
EXTT0=
EXTT1=
EXTT2=
EXTT3=
EXTT4=
EXTT5=
EXTT6=
EXTT7=
EXTT8=
PLAYORDER=
